<?xml version="1.0" encoding="iso-8859-1"?>
<!-- Generator: Adobe Illustrator 24.1.0, SVG Export Plug-In . SVG Version: 6.00 Build 0)  -->
<svg version="1.1" id="Layer_1" xmlns="http://www.w3.org/2000/svg" xmlns:xlink="http://www.w3.org/1999/xlink" x="0px" y="0px"
	 viewBox="0 0 105 294" style="enable-background:new 0 0 105 294; fill: #f02917" xml:space="preserve">
<path d="M52.222,105.138c-2.687,0-5.326-0.204-7.902-0.597v150.848l5.438,33.02c1.173,7.12,3.759,7.12,4.932,0l5.435-33.02V104.541
	C57.548,104.934,54.909,105.138,52.222,105.138z"/>
<path d="M52.222,1.138c-28.719,0-52,23.281-52,52s23.281,52,52,52s52-23.281,52-52S80.941,1.138,52.222,1.138z M52.222,28.582
	c-13.542,0-24.556,11.014-24.556,24.556c0,2.391-1.943,4.333-4.333,4.333S19,55.528,19,53.138c0-18.319,14.907-33.222,33.222-33.222
	c2.391,0,4.333,1.943,4.333,4.333C56.556,26.639,54.613,28.582,52.222,28.582z"/>
<g>
</g>
<g>
</g>
<g>
</g>
<g>
</g>
<g>
</g>
<g>
</g>
<g>
</g>
<g>
</g>
<g>
</g>
<g>
</g>
<g>
</g>
<g>
</g>
<g>
</g>
<g>
</g>
<g>
</g>
</svg>
